{
	"asset": {
		"generator": "Blocks",
		"version": "0.73",
		"copyright": "Unknown"
	},
	"buffers": {
		"model": {
			"byteLength": 520120,
			"type": "arraybuffer",
			"uri": "model.bin"
		}
	},
	"accessors": {
		"accessor_position_m0-PolyPaper19_-25092": {
			"bufferView": "vec3BufferView",
			"byteOffset": 0,
			"byteStride": 12,
			"componentType": 5126,
			"count": 9628,
			"max": [ 0.1799683, 1.251678, 0.2087055 ],
			"min": [ -0.250199, 1.199974, -0.2313924 ],
			"type": "VEC3"
		 },
		"accessor_normal_m0-PolyPaper19_-25092": {
			"bufferView": "vec3BufferView",
			"byteOffset": 115536,
			"byteStride": 12,
			"componentType": 5126,
			"count": 9628,
			"max": [ 0.9985475, 1, 0.9999757 ],
			"min": [ -0.9985475, -1, -0.9999757 ],
			"type": "VEC3"
		 },
		"accessor_color_m0-PolyPaper19_-25092": {
			"bufferView": "vec4BufferView",
			"byteOffset": 0,
			"byteStride": 16,
			"componentType": 5126,
			"count": 9628,
			"max": [ 1, 1, 1, 1 ],
			"min": [ 0.1019608, 0.1019608, 0.1019608, 1 ],
			"type": "VEC4"
		 },
		"accessor_indices_0_m0-PolyPaper19_-25092": {
			"bufferView": "ushortBufferView",
			"byteOffset": 0,
			"byteStride": 0,
			"componentType": 5123,
			"count": 14400,
			"max": [ 9627 ],
			"min": [ 0 ],
			"type": "SCALAR"
		 },
		"accessor_position_m1-PolyPaper23_-25094": {
			"bufferView": "vec3BufferView",
			"byteOffset": 231072,
			"byteStride": 12,
			"componentType": 5126,
			"count": 2472,
			"max": [ 0.1868762, 1.245183, 0.2141667 ],
			"min": [ -0.2635073, 1.203877, -0.2362311 ],
			"type": "VEC3"
		 },
		"accessor_normal_m1-PolyPaper23_-25094": {
			"bufferView": "vec3BufferView",
			"byteOffset": 260736,
			"byteStride": 12,
			"componentType": 5126,
			"count": 2472,
			"max": [ 0.9983034, 0.9999484, 0.9982824 ],
			"min": [ -0.9983034, -0.9999484, -0.9982824 ],
			"type": "VEC3"
		 },
		"accessor_color_m1-PolyPaper23_-25094": {
			"bufferView": "vec4BufferView",
			"byteOffset": 154048,
			"byteStride": 16,
			"componentType": 5126,
			"count": 2472,
			"max": [ 0.8666667, 0.6, 0.2666667, 1 ],
			"min": [ 0.1019608, 0.1019608, 0.1019608, 1 ],
			"type": "VEC4"
		 },
		"accessor_indices_0_m1-PolyPaper23_-25094": {
			"bufferView": "ushortBufferView",
			"byteOffset": 28800,
			"byteStride": 0,
			"componentType": 5123,
			"count": 3660,
			"max": [ 2471 ],
			"min": [ 0 ],
			"type": "SCALAR"
		 }
	},
	"bufferViews": {
		"ushortBufferView": {
			"buffer": "model",
			"byteLength": 36120,
			"byteOffset": 0,
			"target": 34963
		},
		"vec3BufferView": {
			"buffer": "model",
			"byteLength": 290400,
			"byteOffset": 36120,
			"target": 34962
		},
		"vec4BufferView": {
			"buffer": "model",
			"byteLength": 193600,
			"byteOffset": 326520,
			"target": 34962
		}
	},
	"meshes": {
		"mesh_m0-PolyPaper19_-25092": {
			"name": "mesh_m0-PolyPaper19_-25092",
			"primitives": [
				{
					"attributes": {
						"POSITION": "accessor_position_m0-PolyPaper19_-25092",
						"NORMAL": "accessor_normal_m0-PolyPaper19_-25092",
						"COLOR": "accessor_color_m0-PolyPaper19_-25092"
					},
					"indices": "accessor_indices_0_m0-PolyPaper19_-25092",
					"material": "material_mat19",
					"mode": 4
				}
			]
		},
		"mesh_m1-PolyPaper23_-25094": {
			"name": "mesh_m1-PolyPaper23_-25094",
			"primitives": [
				{
					"attributes": {
						"POSITION": "accessor_position_m1-PolyPaper23_-25094",
						"NORMAL": "accessor_normal_m1-PolyPaper23_-25094",
						"COLOR": "accessor_color_m1-PolyPaper23_-25094"
					},
					"indices": "accessor_indices_0_m1-PolyPaper23_-25094",
					"material": "material_mat23",
					"mode": 4
				}
			]
		}
	},
	"shaders": {
		"vertex_mat19": {
			"type": 35633,
			"uri": "https://vr.google.com/shaders/w/vs.glsl"
		},
		"fragment_mat19": {
			"type": 35632,
			"uri": "https://vr.google.com/shaders/w/fs.glsl"
		},
		"vertex_mat23": {
			"type": 35633,
			"uri": "https://vr.google.com/shaders/w/vs.glsl"
		},
		"fragment_mat23": {
			"type": 35632,
			"uri": "https://vr.google.com/shaders/w/fs.glsl"
		}
	},
	"programs": {
		"program_mat19": {
			"attributes": [
				"a_position",
				"a_normal",
				"a_color"				
			],
			"vertexShader": "vertex_mat19",
			"fragmentShader": "fragment_mat19"
		},
		"program_mat23": {
			"attributes": [
				"a_position",
				"a_normal",
				"a_color"				
			],
			"vertexShader": "vertex_mat23",
			"fragmentShader": "fragment_mat23"
		}
	},
	"techniques": {
		"technique_mat19": {
			"program": "program_mat19",
			"extras": {"gvrss" : "https://vr.google.com/shaders/w/gvrss/paper.json"},
			"parameters": {
				"position": {
					"type": 35665,
					"semantic": "POSITION"
				},
				"normal": {
					"type": 35665,
					"semantic": "NORMAL"
				},
				"color": {
					"type": 35666,
					"semantic": "COLOR"
				},
				"modelViewMatrix": {
					"type": 35676,
					"semantic": "MODELVIEW"
				},
				"projectionMatrix": {
					"type": 35676,
					"semantic": "PROJECTION"
				},
				"normalMatrix": {
					"type": 35675,
					"semantic": "MODELVIEWINVERSETRANSPOSE"
				},
				"color": {
					"type": 35666
				},
				"roughness": {
					"type": 5126
				},
				"metallic": {
					"type": 5126
				},
				"light0Pos": {
					"type": 35666
				},
				"light0Color": {
					"type": 35666
				},
				"light1Pos": {
					"type": 35666
				},
				"light1Color": {
					"type": 35666
				}				
			},
			"attributes": {
				"a_position": "position",
				"a_normal": "normal",
				"a_color": "color"				
			},
			"uniforms": {
				"u_modelViewMatrix": "modelViewMatrix",
				"u_projectionMatrix": "projectionMatrix",
				"u_normalMatrix": "normalMatrix",
				"u_color": "color",
				"u_roughness": "roughness",
				"u_metallic": "metallic",
				"u_light0Pos": "light0Pos",
				"u_light0Color": "light0Color",
				"u_light1Pos": "light1Pos",
				"u_light1Color": "light1Color"				
			},
			"states": {
				"enable": [
					2929,
					2884
				],
				"functions": {
					"cullFace": [1029]
				}
			}
		},
		"technique_mat23": {
			"program": "program_mat23",
			"extras": {"gvrss" : "https://vr.google.com/shaders/w/gvrss/paper.json"},
			"parameters": {
				"position": {
					"type": 35665,
					"semantic": "POSITION"
				},
				"normal": {
					"type": 35665,
					"semantic": "NORMAL"
				},
				"color": {
					"type": 35666,
					"semantic": "COLOR"
				},
				"modelViewMatrix": {
					"type": 35676,
					"semantic": "MODELVIEW"
				},
				"projectionMatrix": {
					"type": 35676,
					"semantic": "PROJECTION"
				},
				"normalMatrix": {
					"type": 35675,
					"semantic": "MODELVIEWINVERSETRANSPOSE"
				},
				"color": {
					"type": 35666
				},
				"roughness": {
					"type": 5126
				},
				"metallic": {
					"type": 5126
				},
				"light0Pos": {
					"type": 35666
				},
				"light0Color": {
					"type": 35666
				},
				"light1Pos": {
					"type": 35666
				},
				"light1Color": {
					"type": 35666
				}				
			},
			"attributes": {
				"a_position": "position",
				"a_normal": "normal",
				"a_color": "color"				
			},
			"uniforms": {
				"u_modelViewMatrix": "modelViewMatrix",
				"u_projectionMatrix": "projectionMatrix",
				"u_normalMatrix": "normalMatrix",
				"u_color": "color",
				"u_roughness": "roughness",
				"u_metallic": "metallic",
				"u_light0Pos": "light0Pos",
				"u_light0Color": "light0Color",
				"u_light1Pos": "light1Pos",
				"u_light1Color": "light1Color"				
			},
			"states": {
				"enable": [
					2929,
					2884
				],
				"functions": {
					"cullFace": [1029]
				}
			}
		}
	},
	"materials": {
		"material_mat19": {
			"technique": "technique_mat19",
			"values": {
				"color": [0.8666667, 0.6, 0.2666667, 1],
				"roughness": 0.8,
				"metallic": 0,
				"light0Pos": [-0.02, 4.11, -0.54, 0],
				"light0Color": [0.8, 0.8, 0.8, 0],
				"light1Pos": [0.02, -4.11, 0.54, 0],
				"light1Color": [0.64, 0.64, 0.64, 0]				
			},
			"name": "material_mat19"
		},
		"material_mat23": {
			"technique": "technique_mat23",
			"values": {
				"color": [0.1019608, 0.1019608, 0.1019608, 1],
				"roughness": 0.8,
				"metallic": 0,
				"light0Pos": [-0.02, 4.11, -0.54, 0],
				"light0Color": [0.8, 0.8, 0.8, 0],
				"light1Pos": [0.02, -4.11, 0.54, 0],
				"light1Color": [0.64, 0.64, 0.64, 0]				
			},
			"name": "material_mat23"
		}
	},
	"nodes": {
		"node_MeshObject24700352-PolyPaper19": {
			"name": "node_MeshObject24700352-PolyPaper19",
			"meshes": [
				"mesh_m0-PolyPaper19_-25092"
			],
			"matrix": [1, 0, 0, 0, 0, 1, 0, 0, 0, 0, 1, 0, 0, 0, 0, 1]
		},
		"node_MeshObject543420416-PolyPaper23": {
			"name": "node_MeshObject543420416-PolyPaper23",
			"meshes": [
				"mesh_m1-PolyPaper23_-25094"
			],
			"matrix": [1, 0, 0, 0, 0, 1, 0, 0, 0, 0, 1, 0, 0, 0, 0, 1]
		}
	},
	"scene": "defaultScene",
	"scenes": {
		"defaultScene": {
			"nodes": [
				"node_MeshObject24700352-PolyPaper19",
				"node_MeshObject543420416-PolyPaper23"
			],
			"extras": {

			}
		}
	}
}